# xmcd
#
# Track frame offsets:
#	150
#	14727
#	31054
#	44200
#	57747
#	71868
#	86572
#	99908
#	114761
#	129373
#	143914
#	158664
#
# Disc length: 2306 seconds
#
# Revision: 0
# Processed by: cddbd v1.5.2PL0 Copyright (c) Steve Scherf et al.
# Submitted via: EasyCDDAExtractor 16.0.6.1
#
DISCID=a409000c
DTITLE=Βαμβακάρης Μάρκος - Μύθος ρεμπέτικος 04-Βαμβακάρης Μάρκος
DYEAR=1997
DGENRE=Ρεμπέτικη
TTITLE0=Βαμβακάρης Μάρκος - Αν μ' αξιώσει ο Θεός [μουσ. κ στ. Μάρκος Βαμβακάρη
TTITLE0=ς]
TTITLE1=Βαμβακάρης Μάρκος - Όσοι έχουνε πολλά λεφτά [μουσ. κ στ. Μάρκος Βαμβακ
TTITLE1=άρης]
TTITLE2=Βαμβακάρης Μάρκος - Τώρα την καλοκαιριά [μουσ. κ στ. Μάρκος Βαμβακάρης
TTITLE2=]
TTITLE3=Βαμβακάρης Μάρκος-Χατζηχρήστος Απόστολος - Ξελογιασμένη [μουσ. κ στ. Μ
TTITLE3=άρκος Βαμβακάρης]
TTITLE4=Βαμβακάρης Μάρκος - Πρέπει να ξέρεις μηχανή [μουσ. κ στ. Μάρκος Βαμβακ
TTITLE4=άρης]
TTITLE5=Βαμβακάρης Μάρκος - Κάφτονε Σταύρο κάφτονε [μουσ. κ στ. Μάρκος Βαμβακά
TTITLE5=ρης]
TTITLE6=Βαμβακάρης Μάρκος - Ψεύτικος ντουνιάς [μουσ. κ στ. Μάρκος Βαμβακάρης]
TTITLE7=Βαμβακάρης Μάρκος - Μόρτισσα χασικολύ [μουσ. κ στ. Μάρκος Βαμβακάρης]
TTITLE8=Βαμβακάρης Μάρκος-Αμπατζή Ρίτα - Αν είσαι μάγκας και νταής [μουσ. κ στ
TTITLE8=Μάρκος Βαμβακάρης]
TTITLE9=Βαμβακάρης Μάρκος - Θέλω μαστούρης να γίνω [μουσ. κ στ. Μάρκος Βαμβακά
TTITLE9=ρης]
TTITLE10=Βαμβακάρης Μάρκος - Μάρκος ο Συριανός [μουσ. κ στ. Μάρκος Βαμβακάρης]
TTITLE11=Βαμβακάρης Μάρκος - Η κολπατζού [μουσ. κ στ. Μάρκος Βαμβακάρης]
EXTD=
EXTT0=
EXTT1=
EXTT2=
EXTT3=
EXTT4=
EXTT5=
EXTT6=
EXTT7=
EXTT8=
EXTT9=
EXTT10=
EXTT11=
PLAYORDER=
